<?xml version="1.0" encoding="utf-8"?><svg xmlns="http://www.w3.org/2000/svg" xmlns:xlink="http://www.w3.org/1999/xlink"><symbol viewBox="0 0 22 24" id="basket" xmlns="http://www.w3.org/2000/svg"><g clip-path="url(#aa)"><path d="M10.363 18.443a2.046 2.046 0 0 0-2.045 2.042 2.046 2.046 0 0 0 4.09 0 2.046 2.046 0 0 0-2.045-2.042Zm6.134 0a2.046 2.046 0 0 0-2.045 2.042 2.046 2.046 0 0 0 4.089 0 2.046 2.046 0 0 0-2.044-2.042Zm3.978-8.199L7.413 6.891a.614.614 0 0 0-.75.73L8.67 16.4h-.786L5.482 5.895a.613.613 0 0 0-.474-.464l-4.27-.882A.614.614 0 0 0 .489 5.75l3.885.802L6.797 17.15a.613.613 0 0 0 .598.477h12.07a.615.615 0 0 0 .607-.53l.858-6.175a.613.613 0 0 0-.455-.678Zm-8.14 3.91a.613.613 0 0 1-1.227 0v-2.696a.613.613 0 0 1 1.227 0v2.696Zm2.625 0a.613.613 0 0 1-1.227 0v-1.88a.613.613 0 0 1 1.227 0v1.88Zm2.625 0a.613.613 0 0 1-1.227 0v-1.226a.613.613 0 0 1 1.227 0v1.226Z"/></g><path fill-rule="evenodd" clip-rule="evenodd" d="M16.268 4.568a2.996 2.996 0 0 0-1.693-.523c-.627 0-1.21.193-1.693.523-.28-.843-.492-1.752-.492-2.383C12.39.98 13.37 0 14.575 0s2.185.98 2.185 2.185c0 .631-.212 1.54-.492 2.383Zm-4.722 2.274.024.006v-.011l-.024.005Zm4.972 1.217c-1.333-.33-2.766-.681-4.129-1.013a2.185 2.185 0 1 1 4.129 1.013Zm4.436 1.103c-.866-.217-2.155-.538-3.618-.9a2.995 2.995 0 0 0 .243-1.425c.87.18 1.762.45 2.308.765.596.344.969.928 1.067 1.56ZM9.869 6.439c-.36-.086-.706-.167-1.03-.243a2.19 2.19 0 0 1-.376-2.667 2.188 2.188 0 0 1 3.147-.7c.098.738.338 1.599.61 2.353a3.01 3.01 0 0 0-.449.774c-.628.113-1.305.278-1.902.483Zm10.124.075a3.43 3.43 0 0 1-.217.114c-.696-.295-1.587-.526-2.397-.672a3.01 3.01 0 0 0-.449-.774c.262-.727.494-1.553.599-2.273.095-.067.189-.128.278-.18a2.188 2.188 0 0 1 2.986.8 2.188 2.188 0 0 1-.8 2.985Z"/><defs><clipPath id="aa"><path transform="translate(0 3.064)" d="M0 0h20.936v20.936H0z"/></clipPath></defs></symbol><symbol viewBox="0 0 344.96 344.96" id="check" xmlns="http://www.w3.org/2000/svg"><g data-name="Слой 2"><path class="bcls-1" d="m321.85 86.24-40-23.11-23.1-40H212.5L172.48 0l-40 23.11H86.24l-23.11 40-40 23.1v46.21L0 172.48l23.11 40v46.21l40 23.11 23.11 40h46.21l40 23.1 40-23.11h46.21l23.11-40 40-23.11V212.5l23.11-40-23.11-40V86.24ZM156.91 243.07a16.79 16.79 0 0 1-23.34 0l-50.45-50.44a16.19 16.19 0 0 1 0-22.89l13.35-13.35a16.19 16.19 0 0 1 22.89 0l25.87 25.87 80.34-80.35a16.19 16.19 0 0 1 22.89 0l13.35 13.35a16.19 16.19 0 0 1 0 22.89Z" data-name="Capa 1"/></g></symbol><symbol viewBox="0 0 14 13" id="delivery" xmlns="http://www.w3.org/2000/svg"><path fill-rule="evenodd" clip-rule="evenodd" d="m13.733 6.197-1.357-2.198a1.927 1.927 0 0 0-1.636-.904H9.55V1.857C9.55.83 8.697 0 7.64 0H.637A.63.63 0 0 0 0 .619c0 .34.286.62.637.62H3.82a.63.63 0 0 1 .637.618.63.63 0 0 1-.637.62H.637A.63.63 0 0 0 0 3.094c0 .34.286.62.637.62h3.82a.63.63 0 0 1 .636.618.63.63 0 0 1-.636.62H1.273a.63.63 0 0 0-.636.618c0 .34.286.62.636.62H7.64a.63.63 0 0 1 .636.619v2.476a.63.63 0 0 1-.636.619H5.513a2.237 2.237 0 0 0-2.011-1.238c-.885 0-1.656.507-2.012 1.238H.637a.63.63 0 0 0-.637.619c0 .34.286.619.637.619h.662C1.452 12.195 2.38 13 3.502 13c1.12 0 2.05-.805 2.202-1.857h2.592C8.448 12.195 9.378 13 10.498 13c1.12 0 2.114-.86 2.216-1.962.745-.254 1.286-.941 1.286-1.752V7.15c0-.334-.095-.669-.274-.953h.007ZM3.502 11.762a.94.94 0 0 1-.955-.929.94.94 0 0 1 .955-.928.94.94 0 0 1 .955.928.94.94 0 0 1-.955.929Zm7.003 0a.94.94 0 0 1-.955-.929.94.94 0 0 1 .955-.928.94.94 0 0 1 .955.928.94.94 0 0 1-.955.929Zm2.228-2.476a.61.61 0 0 1-.274.507 2.23 2.23 0 0 0-1.636-1.108 2.22 2.22 0 0 0-1.273.186v-.83a.63.63 0 0 1 .636-.619h1.91a.63.63 0 0 1 .637.62v1.244Z"/></symbol><symbol viewBox="0 0 14 12" id="email" xmlns="http://www.w3.org/2000/svg"><path d="m8.15 5.565 5.587-4.562C13.381.387 12.7.003 11.957 0H2.043C1.301.003.618.387.263 1.004l5.594 4.567a1.87 1.87 0 0 0 2.292-.006Z"/><path d="M8.846 6.343a3 3 0 0 1-3.686.005L0 2.136V9.28c.002 1.067.915 1.932 2.043 1.934h9.914c1.127-.002 2.041-.867 2.043-1.934V2.136L8.847 6.343Z"/></symbol><symbol viewBox="0 0 24 24" id="fb" xmlns="http://www.w3.org/2000/svg"><path d="M13.397 20.997v-8.196h2.765l.411-3.209h-3.176V7.548c0-.926.258-1.56 1.587-1.56h1.684v-2.86A22.108 22.108 0 0 0 14.201 3c-2.444 0-4.122 1.492-4.122 4.231v2.355H7.332v3.21h2.753v8.201h3.312Z"/></symbol><symbol viewBox="0 0 24 24" id="instagram" xmlns="http://www.w3.org/2000/svg"><path d="M11.999 7.377a4.624 4.624 0 1 0 0 9.248 4.624 4.624 0 0 0 0-9.248Zm0 7.627a3.004 3.004 0 1 1 0-6.008 3.004 3.004 0 0 1 0 6.008Zm4.807-6.719a1.078 1.078 0 1 0 0-2.156 1.078 1.078 0 0 0 0 2.156Z"/><path d="M20.533 6.11A4.605 4.605 0 0 0 17.9 3.48a6.607 6.607 0 0 0-2.186-.42c-.963-.042-1.268-.054-3.71-.054s-2.755 0-3.71.054a6.554 6.554 0 0 0-2.184.42 4.6 4.6 0 0 0-2.633 2.63 6.585 6.585 0 0 0-.419 2.186c-.043.962-.056 1.267-.056 3.71 0 2.442 0 2.753.056 3.71.015.748.156 1.486.419 2.187a4.61 4.61 0 0 0 2.634 2.632 6.583 6.583 0 0 0 2.185.45c.963.042 1.268.055 3.71.055s2.755 0 3.71-.055a6.616 6.616 0 0 0 2.186-.42 4.613 4.613 0 0 0 2.633-2.632c.263-.7.404-1.438.419-2.186.043-.962.056-1.267.056-3.71s0-2.753-.056-3.71a6.583 6.583 0 0 0-.421-2.217Zm-1.218 9.533a5.046 5.046 0 0 1-.311 1.688 2.987 2.987 0 0 1-1.712 1.71c-.535.2-1.1.305-1.67.312-.95.044-1.218.055-3.654.055-2.438 0-2.687 0-3.655-.055a4.961 4.961 0 0 1-1.67-.311 2.984 2.984 0 0 1-1.718-1.711 5.08 5.08 0 0 1-.311-1.67c-.043-.95-.053-1.217-.053-3.653 0-2.437 0-2.686.053-3.655a5.038 5.038 0 0 1 .311-1.687c.305-.79.93-1.41 1.719-1.712a5.01 5.01 0 0 1 1.669-.311c.95-.043 1.218-.055 3.655-.055s2.687 0 3.654.055a4.96 4.96 0 0 1 1.67.31 2.99 2.99 0 0 1 1.712 1.713 5.06 5.06 0 0 1 .311 1.669c.043.95.054 1.218.054 3.655 0 2.436 0 2.698-.043 3.654h-.011v-.001Z"/></symbol><symbol viewBox="0 0 13 16" id="map-mark" xmlns="http://www.w3.org/2000/svg"><path d="M11.425 2.251a6.485 6.485 0 0 0-.585-.586C8.196-.709 4.1-.522 1.69 2.084a6.318 6.318 0 0 0 .631 9.195 15.575 15.575 0 0 1 3.725 4.442.54.54 0 0 0 .476.279c.198 0 .38-.108.475-.28l.044-.082a15.746 15.746 0 0 1 3.719-4.392 6.313 6.313 0 0 0 .665-8.994ZM6.522 9.085c-1.49 0-2.7-1.191-2.7-2.66s1.21-2.66 2.7-2.66c1.49 0 2.699 1.191 2.699 2.66-.002 1.468-1.21 2.658-2.7 2.66Z"/></symbol><symbol viewBox="0 0 14 13" id="phone" xmlns="http://www.w3.org/2000/svg"><path d="M12.729 9.925c-.406-.34-2.787-1.852-3.184-1.78-.186.033-.328.192-.709.645a5.444 5.444 0 0 1-.578.627 5.007 5.007 0 0 1-1.103-.41 6.82 6.82 0 0 1-3.153-3.15 5.002 5.002 0 0 1-.409-1.104c.193-.21.402-.402.626-.578.454-.381.612-.523.646-.71.07-.396-1.44-2.777-1.78-3.183C2.942.112 2.812 0 2.646 0 2.168 0 0 2.683 0 3.03c0 .028.048 2.82 3.573 6.407C7.16 12.962 9.952 13.01 9.98 13.01c.348 0 3.03-2.168 3.03-2.647 0-.167-.112-.293-.281-.438Z"/></symbol><symbol viewBox="0 0 20 19" id="phone-2" xmlns="http://www.w3.org/2000/svg"><path d="M17.65 8.826h1.36A8.836 8.836 0 0 0 10.183 0v1.36a7.476 7.476 0 0 1 7.468 7.468l-.001-.001Zm.95 5.677c-.594-.499-4.073-2.707-4.653-2.602-.272.05-.479.28-1.036.944-.257.326-.54.632-.845.914a7.314 7.314 0 0 1-1.612-.598 9.965 9.965 0 0 1-4.606-4.604 7.305 7.305 0 0 1-.598-1.612c.282-.306.587-.588.915-.845.663-.556.894-.764.943-1.036.102-.58-2.103-4.059-2.601-4.652C4.3.165 4.11 0 3.867 0 3.169 0 0 3.92 0 4.428c0 .04.07 4.12 5.22 9.362 5.244 5.15 9.322 5.22 9.362 5.22.509 0 4.427-3.168 4.43-3.869 0-.242-.166-.427-.413-.638Z"/><path d="M14.257 8.826h1.358a5.438 5.438 0 0 0-5.431-5.431v1.358a4.077 4.077 0 0 1 4.073 4.073Z"/></symbol><symbol viewBox="0 0 20 21" id="search" xmlns="http://www.w3.org/2000/svg"><path d="M15.676 14.337a8.626 8.626 0 0 0 1.76-5.197A8.717 8.717 0 0 0 8.718.422 8.718 8.718 0 0 0 0 9.14a8.718 8.718 0 0 0 8.718 8.718 8.637 8.637 0 0 0 5.196-1.76l3.886 3.886a1.245 1.245 0 0 0 1.76-1.76l-3.884-3.887Zm-2.552-.8-.005.003-.003.005a6.234 6.234 0 1 1 .008-.008Z"/></symbol><symbol viewBox="0 0 16 16" id="telegram" xmlns="http://www.w3.org/2000/svg"><path d="m14.629 3.698-2.012 9.618c-.152.679-.548.848-1.11.528l-3.066-2.29-1.48 1.442c-.163.166-.3.305-.616.305l.22-3.165 5.683-5.204c.247-.223-.054-.347-.384-.123L4.839 9.29l-3.024-.959c-.658-.208-.67-.667.137-.986L13.78 2.727c.548-.208 1.027.124.849.971Z"/></symbol><symbol viewBox="0 0 14 13" id="track" xmlns="http://www.w3.org/2000/svg"><path fill-rule="evenodd" clip-rule="evenodd" d="m13.733 6.197-1.357-2.198a1.927 1.927 0 0 0-1.636-.904H9.55V1.857C9.55.83 8.697 0 7.64 0H.637A.63.63 0 0 0 0 .619c0 .34.286.62.637.62H3.82a.63.63 0 0 1 .637.618.63.63 0 0 1-.637.62H.637A.63.63 0 0 0 0 3.094c0 .34.286.62.637.62h3.82a.63.63 0 0 1 .636.618.63.63 0 0 1-.636.62H1.273a.63.63 0 0 0-.636.618c0 .34.286.62.636.62H7.64a.63.63 0 0 1 .636.619v2.476a.63.63 0 0 1-.636.619H5.513a2.237 2.237 0 0 0-2.011-1.238c-.885 0-1.656.507-2.012 1.238H.637a.63.63 0 0 0-.637.619c0 .34.286.619.637.619h.662C1.452 12.195 2.38 13 3.502 13c1.12 0 2.05-.805 2.202-1.857h2.592C8.448 12.195 9.378 13 10.498 13c1.12 0 2.114-.86 2.216-1.962.745-.254 1.286-.941 1.286-1.752V7.15c0-.334-.095-.669-.274-.953h.007ZM3.502 11.762a.94.94 0 0 1-.955-.929.94.94 0 0 1 .955-.928.94.94 0 0 1 .955.928.94.94 0 0 1-.955.929Zm7.003 0a.94.94 0 0 1-.955-.929.94.94 0 0 1 .955-.928.94.94 0 0 1 .955.928.94.94 0 0 1-.955.929Zm2.228-2.476a.61.61 0 0 1-.274.507 2.23 2.23 0 0 0-1.636-1.108 2.22 2.22 0 0 0-1.273.186v-.83a.63.63 0 0 1 .636-.619h1.91a.63.63 0 0 1 .637.62v1.244Z"/></symbol><symbol viewBox="0 0 16 16" id="viber" xmlns="http://www.w3.org/2000/svg"><path d="M8 1.335c-1.071.013-3.374.19-4.662 1.37-.958.948-1.292 2.35-1.331 4.084-.033 1.728-.072 4.973 3.058 5.856v1.346s-.02.538.337.648c.438.14.688-.275 1.105-.72l.778-.879c2.142.178 3.782-.232 3.97-.293.435-.139 2.883-.451 3.283-3.696.41-3.351-.2-5.463-1.301-6.418h-.007c-.332-.306-1.668-1.279-4.652-1.29 0 0-.222-.014-.578-.008Zm.037.942a7.02 7.02 0 0 1 .488.011c2.527.007 3.732.767 4.017 1.023.927.794 1.405 2.697 1.055 5.495-.332 2.713-2.317 2.885-2.685 3.002-.156.05-1.6.406-3.42.289 0 0-1.356 1.634-1.78 2.055-.067.074-.146.095-.196.085-.071-.018-.093-.107-.089-.229l.013-2.233c-2.655-.733-2.498-3.5-2.47-4.946.033-1.446.304-2.628 1.113-3.43 1.088-.982 3.043-1.115 3.953-1.122Zm.2 1.446a.166.166 0 1 0 0 .332 3.136 3.136 0 0 1 2.242.883c.606.588.9 1.378.912 2.411 0 .092.074.167.167.167V7.51a.167.167 0 0 0 .168-.165 3.588 3.588 0 0 0-1.009-2.646c-.66-.645-1.496-.977-2.48-.977Zm-2.198.382a.523.523 0 0 0-.342.067H5.69a2.61 2.61 0 0 0-.637.523 1.003 1.003 0 0 0-.256.525.71.71 0 0 0 .026.302l.01.006c.172.504.396.988.67 1.444a8.48 8.48 0 0 0 1.29 1.762l.015.022.024.017.015.018.017.015c.532.505 1.127.94 1.769 1.295.734.4 1.18.588 1.447.667v.004c.078.024.15.034.221.034.228-.016.444-.109.613-.262a2.53 2.53 0 0 0 .517-.638v-.004c.128-.241.085-.469-.1-.623-.37-.323-.77-.61-1.195-.857-.285-.155-.574-.061-.69.095l-.25.315c-.129.156-.361.134-.361.134l-.007.004C7.093 8.527 6.63 6.772 6.63 6.772s-.022-.239.139-.36l.312-.252c.15-.122.254-.41.094-.695a7.498 7.498 0 0 0-.856-1.194.475.475 0 0 0-.28-.167Zm2.486.495c-.221 0-.221.334.003.334A2.098 2.098 0 0 1 10 5.572 1.94 1.94 0 0 1 10.5 7a.168.168 0 0 0 .167.165l.007.009a.169.169 0 0 0 .167-.167c.015-.662-.191-1.218-.595-1.663C9.84 4.9 9.273 4.65 8.549 4.6h-.024Zm.274.898c-.228-.006-.236.335-.01.341.55.029.816.306.851.877a.166.166 0 0 0 .165.163h.007a.168.168 0 0 0 .16-.178c-.039-.744-.445-1.164-1.166-1.202H8.8Z"/></symbol><symbol viewBox="0 0 24 24" id="vk" xmlns="http://www.w3.org/2000/svg"><path d="M21.579 6.855c.14-.465 0-.806-.662-.806h-2.193c-.558 0-.813.295-.953.619 0 0-1.115 2.719-2.695 4.482-.51.513-.743.675-1.021.675-.139 0-.341-.162-.341-.627V6.855c0-.558-.161-.806-.626-.806H9.642c-.348 0-.558.258-.558.504 0 .528.79.65.871 2.138v3.228c0 .707-.127.836-.407.836-.743 0-2.551-2.73-3.624-5.853-.209-.607-.42-.852-.98-.852H2.752c-.627 0-.752.295-.752.619 0 .582.743 3.462 3.461 7.27 1.812 2.602 4.363 4.012 6.687 4.012 1.393 0 1.565-.313 1.565-.853v-1.966c0-.626.133-.752.574-.752.324 0 .882.164 2.183 1.417 1.486 1.486 1.732 2.153 2.567 2.153h2.192c.626 0 .939-.313.759-.931-.197-.615-.907-1.51-1.849-2.57-.512-.603-1.277-1.253-1.51-1.578-.325-.42-.231-.604 0-.976.001 0 2.672-3.761 2.95-5.04Z"/></symbol><symbol viewBox="0 0 16 16" id="whatsapp" xmlns="http://www.w3.org/2000/svg"><path fill-rule="evenodd" clip-rule="evenodd" d="M12.269 3.755A5.947 5.947 0 0 0 8.035 2 5.994 5.994 0 0 0 2.05 7.985a5.98 5.98 0 0 0 .799 2.992L2 14.077l3.173-.832c.877.477 1.86.728 2.86.728h.002a5.993 5.993 0 0 0 5.533-8.276 5.953 5.953 0 0 0-1.3-1.942Zm-4.234 9.208h-.002c-.89 0-1.765-.24-2.532-.694l-.181-.108-1.883.494.502-1.835-.118-.188a4.965 4.965 0 0 1-.76-2.647 4.982 4.982 0 0 1 6.88-4.597c.604.25 1.152.618 1.613 1.081a4.946 4.946 0 0 1 1.455 3.52 4.982 4.982 0 0 1-4.974 4.974Zm2.729-3.726c-.15-.075-.885-.436-1.022-.486-.137-.05-.236-.075-.336.074-.1.15-.387.486-.474.586-.087.1-.175.112-.324.038-.15-.075-.631-.233-1.203-.742a4.505 4.505 0 0 1-.832-1.036c-.087-.15-.009-.231.066-.306.068-.066.15-.174.224-.262.075-.087.1-.149.15-.249.05-.1.025-.187-.013-.262-.037-.075-.337-.811-.461-1.11-.121-.29-.244-.252-.336-.256a6.418 6.418 0 0 0-.286-.005.55.55 0 0 0-.4.186c-.137.15-.523.512-.523 1.248s.536 1.447.61 1.547c.075.1 1.055 1.61 2.555 2.258.358.154.636.246.853.315.358.114.684.098.942.06.287-.043.885-.362 1.01-.711.124-.35.124-.649.087-.711-.038-.063-.138-.101-.287-.176Z"/></symbol></svg>