<svg width="25" height="25" viewBox="0 0 25 25" fill="none" xmlns="http://www.w3.org/2000/svg">
<path d="M12.5 25C19.4036 25 25 19.4036 25 12.5C25 5.59644 19.4036 0 12.5 0C5.59644 0 0 5.59644 0 12.5C0 19.4036 5.59644 25 12.5 25Z" fill="#2F95B9"/>
<path fill-rule="evenodd" clip-rule="evenodd" d="M5.65826 12.3682C9.30226 10.7805 11.7323 9.73398 12.948 9.22823C16.4195 7.78448 17.1408 7.53348 17.6108 7.52523C17.7143 7.52348 17.9453 7.54898 18.0953 7.67048C18.2218 7.77298 18.2565 7.91173 18.2733 8.00898C18.29 8.10623 18.3108 8.32798 18.2943 8.50098C18.1063 10.4775 17.2923 15.274 16.878 17.4877C16.7028 18.4245 16.3578 18.7385 16.0238 18.7692C15.2978 18.836 14.7468 18.2895 14.0435 17.8287C12.9433 17.1075 12.3218 16.6587 11.254 15.955C10.0198 15.1417 10.82 14.6947 11.5233 13.9642C11.7073 13.773 14.9058 10.864 14.9675 10.6C14.9753 10.567 14.9825 10.444 14.9093 10.379C14.836 10.314 14.7283 10.3362 14.6505 10.354C14.5403 10.379 12.7828 11.5407 9.37801 13.839C8.87926 14.1815 8.42726 14.3485 8.02251 14.3397C7.57626 14.33 6.71776 14.0875 6.07951 13.88C5.29676 13.6255 4.67451 13.491 4.72876 13.0587C4.75701 12.8337 5.06701 12.6035 5.65876 12.3682H5.65826Z" fill="white"/>
</svg>
