<svg width="25" height="25" viewBox="0 0 25 25" fill="none" xmlns="http://www.w3.org/2000/svg">
<g clip-path="url(#clip0_11_135)">
<mask id="mask0_11_135" style="mask-type:luminance" maskUnits="userSpaceOnUse" x="0" y="0" width="25" height="25">
<path d="M25 0H0V25H25V0Z" fill="white"/>
</mask>
<g mask="url(#mask0_11_135)">
<path d="M0 12C0 6.3425 0 3.515 1.7575 1.7575C3.515 0 6.3425 0 12 0H13C18.6575 0 21.485 0 23.2425 1.7575C25 3.515 25 6.3425 25 12V13C25 18.6575 25 21.485 23.2425 23.2425C21.485 25 18.6575 25 13 25H12C6.3425 25 3.515 25 1.7575 23.2425C0 21.485 0 18.6575 0 13V12Z" fill="#2F95B9"/>
<path d="M13.3025 18.01C7.605 18.01 4.355 14.105 4.22 7.60498H7.075C7.17 12.375 9.2725 14.3975 10.94 14.8125V7.60498H13.6275V11.72C15.2725 11.5425 17.0025 9.66748 17.585 7.60498H20.2725C19.825 10.1475 17.95 12.0225 16.6175 12.7925C17.95 13.4175 20.0875 15.0525 20.9 18.0125H17.9425C17.3075 16.0325 15.725 14.5025 13.63 14.2925V18.0125H13.3075L13.3025 18.01Z" fill="white"/>
</g>
</g>
<defs>
<clipPath id="clip0_11_135">
<rect width="25" height="25" fill="white"/>
</clipPath>
</defs>
</svg>
