<svg width="23" height="23" viewBox="0 0 23 23" fill="none" xmlns="http://www.w3.org/2000/svg">
<path fill-rule="evenodd" clip-rule="evenodd" d="M10.1645 0.0614297C2.97463 0.763299 -2.33391 9.20886 1.95593 16.7097C1.30841 18.6442 0.600757 20.5186 -0.00976562 22.49C1.05055 22.2357 1.95593 21.9003 2.99659 21.565C3.94591 21.2597 5.17852 20.5845 6.11858 20.64C6.79155 20.6793 7.50614 21.269 8.08428 21.4494C15.7436 23.8452 22.5541 17.9493 22.5356 10.9283C22.5183 4.2738 16.953 -0.602282 10.1645 0.0602734V0.0614297ZM6.34869 18.5598C5.17852 18.8535 4.13092 19.2709 2.99544 19.6005C3.31804 18.5355 3.66493 17.4949 4.0361 16.4785C-0.153146 10.5328 3.9355 2.40755 10.7426 1.9115C16.7056 1.47673 21.1388 6.41757 20.5699 11.9701C19.9421 18.1031 12.5349 22.3143 6.34984 18.5598H6.34869Z" fill="white"/>
<path fill-rule="evenodd" clip-rule="evenodd" d="M14.326 12.3173C13.8218 12.8157 13.4264 13.4216 12.8228 13.8205C11.0097 13.0134 9.61755 11.7843 8.77693 10.0047C10.4339 9.10053 9.42792 7.08742 8.77693 5.72647C6.20649 4.95175 5.5289 8.11768 6.11745 9.77349C7.10955 12.5636 11.2202 16.3412 14.2103 16.4788C15.628 16.5447 17.3046 15.8082 17.2167 13.8194C16.3634 13.2088 15.3794 12.7278 14.326 12.3162V12.3173Z" fill="white"/>
</svg>
