<svg width="13" height="16" viewBox="0 0 13 16" fill="none" xmlns="http://www.w3.org/2000/svg">
<path d="M11.4252 2.25138C11.243 2.04393 11.0477 1.84812 10.8402 1.66527C8.19605 -0.709386 4.09923 -0.521886 1.68986 2.08382C-0.719858 4.68953 -0.52959 8.72642 2.11458 11.1011C2.18239 11.1619 2.25121 11.2211 2.32138 11.2793C3.8334 12.518 5.09645 14.0246 6.04576 15.7214C6.14022 15.8936 6.32307 16.0007 6.52177 16C6.72013 16 6.90264 15.8923 6.99676 15.7201L7.04095 15.6383C7.99701 13.9621 9.2577 12.4734 10.7599 11.2464C13.4642 8.94351 13.7617 4.91626 11.4249 2.25171L11.4252 2.25138ZM6.52177 9.08479C5.03134 9.08479 3.82294 7.89398 3.82294 6.42523C3.82294 4.95649 5.03134 3.76567 6.52177 3.76567C8.01219 3.76567 9.22059 4.95649 9.22059 6.42523C9.2189 7.89331 8.01152 9.08313 6.52177 9.08479Z" fill="black"/>
</svg>
