<svg width="20" height="19" viewBox="0 0 20 19" fill="none" xmlns="http://www.w3.org/2000/svg">
<path d="M17.6509 8.82597H19.0093C19.0034 3.95417 15.0556 0.0064287 10.1838 0.000488281V1.35886C14.3058 1.36348 17.647 4.70398 17.6516 8.82663L17.6509 8.82597Z" fill="white"/>
<path d="M18.5995 14.5026C18.0061 14.0042 14.527 11.7957 13.9474 11.9013C13.6749 11.9501 13.4683 12.1812 12.9112 12.8445C12.6544 13.1712 12.3719 13.4768 12.0663 13.7593C11.5073 13.624 10.9667 13.4234 10.4545 13.1613C8.44662 12.1858 6.82422 10.564 5.84802 8.55685C5.58598 8.04531 5.38532 7.50407 5.25001 6.94501C5.53185 6.63941 5.83745 6.35691 6.16484 6.10015C6.82819 5.54373 7.0592 5.33648 7.10804 5.06388C7.20969 4.48436 5.00514 1.00525 4.5068 0.411869C4.29955 0.165012 4.11077 0 3.86787 0C3.16822 0.000660047 0 3.92002 0 4.42759C0 4.46852 0.0699648 8.54827 5.22031 13.7897C10.4637 18.94 14.5415 19.01 14.5824 19.01C15.0907 19.01 19.0093 15.8418 19.0113 15.1415C19.0113 14.8986 18.8463 14.7138 18.5995 14.5026Z" fill="white"/>
<path d="M14.257 8.8263H15.6154C15.6121 5.82837 13.1824 3.39808 10.1838 3.39478V4.75315C12.4326 4.75579 14.255 6.57752 14.257 8.8263Z" fill="white"/>
</svg>
