<svg width="14" height="13" viewBox="0 0 14 13" fill="none" xmlns="http://www.w3.org/2000/svg">
<path d="M12.729 9.92521C12.3229 9.58416 9.94192 8.0727 9.54531 8.14498C9.35875 8.1784 9.21736 8.33651 8.83611 8.79049C8.66039 9.01409 8.46705 9.22323 8.25791 9.41657C7.8753 9.32397 7.50534 9.18664 7.15481 9.00731C5.78067 8.33967 4.67034 7.22979 4.00225 5.85611C3.82291 5.50602 3.68559 5.13561 3.59299 4.75301C3.78587 4.54386 3.99502 4.35052 4.21907 4.1748C4.67305 3.794 4.83115 3.65216 4.86458 3.4656C4.93415 3.06899 3.4254 0.687971 3.08435 0.281874C2.94251 0.11293 2.81332 0 2.64708 0C2.16826 0.000451721 0 2.68277 0 3.03014C0 3.05815 0.0478823 5.85024 3.57266 9.43735C7.16113 12.9621 9.95186 13.01 9.97987 13.01C10.3277 13.01 13.0096 10.8418 13.0109 10.3625C13.0109 10.1962 12.898 10.0698 12.729 9.92521Z" fill="black"/>
</svg>
