<svg width="20" height="21" viewBox="0 0 20 21" fill="none" xmlns="http://www.w3.org/2000/svg">
<path d="M15.6759 14.3367C16.8124 12.8422 17.4304 11.0176 17.4358 9.14015C17.4358 4.32505 13.533 0.422226 8.71792 0.422226C3.90283 0.422226 0 4.32505 0 9.14015C0 13.9552 3.90283 17.8581 8.71792 17.8581C10.5954 17.8518 12.4199 17.2338 13.9144 16.0981L17.8001 19.9838C18.2952 20.4618 19.0837 20.4478 19.5608 19.9535C20.0271 19.4709 20.0271 18.7057 19.5608 18.2231L15.6759 14.3367ZM13.1236 13.5373L13.1189 13.5404L13.1158 13.545C10.6787 15.9775 6.73148 15.9736 4.2998 13.5365C1.86813 11.0993 1.87124 7.15215 4.30837 4.72047C6.74549 2.2888 10.6927 2.29191 13.1244 4.72904C15.5537 7.16227 15.5529 11.1032 13.1236 13.5373Z" fill="#2F95B9"/>
</svg>
